<svg xmlns="http://www.w3.org/2000/svg" viewBox="0 0 560 1400" width="560" height="1400" preserveAspectRatio="xMidYMid slice"><defs><linearGradient id="bg" x1="0" y1="0" x2="0" y2="1"><stop offset="0" stop-color="#1a0f2e"/><stop offset="1" stop-color="#0f0a1e"/></linearGradient></defs><rect width="560" height="1400" fill="url(#bg)"/><circle cx="122" cy="59" r="1.0" fill="#fff" opacity="0.17"/><circle cx="150" cy="217" r="0.9" fill="#fff" opacity="0.37"/><circle cx="97" cy="1217" r="0.7" fill="#fff" opacity="0.11"/><circle cx="231" cy="484" r="0.8" fill="#fff" opacity="0.11"/><circle cx="211" cy="1338" r="0.9" fill="#fff" opacity="0.23"/><circle cx="467" cy="1214" r="0.6" fill="#fff" opacity="0.36"/><circle cx="171" cy="873" r="0.6" fill="#fff" opacity="0.15"/><circle cx="352" cy="217" r="0.4" fill="#fff" opacity="0.13"/><circle cx="360" cy="1244" r="0.5" fill="#fff" opacity="0.11"/><circle cx="478" cy="1106" r="0.4" fill="#fff" opacity="0.38"/><circle cx="88" cy="1138" r="0.6" fill="#fff" opacity="0.29"/><circle cx="378" cy="1190" r="0.5" fill="#fff" opacity="0.12"/><circle cx="241" cy="600" r="1.2" fill="#fff" opacity="0.36"/><circle cx="111" cy="786" r="0.6" fill="#fff" opacity="0.29"/><circle cx="381" cy="341" r="0.6" fill="#fff" opacity="0.16"/><circle cx="281" cy="1335" r="0.4" fill="#fff" opacity="0.29"/><circle cx="258" cy="342" r="0.7" fill="#fff" opacity="0.18"/><circle cx="232" cy="672" r="1.1" fill="#fff" opacity="0.33"/><circle cx="242" cy="73" r="1.0" fill="#fff" opacity="0.22"/><circle cx="75" cy="440" r="1.1" fill="#fff" opacity="0.27"/><circle cx="330" cy="443" r="0.9" fill="#fff" opacity="0.22"/><circle cx="477" cy="300" r="0.5" fill="#fff" opacity="0.17"/><circle cx="277" cy="1205" r="0.7" fill="#fff" opacity="0.28"/><circle cx="378" cy="457" r="1.2" fill="#fff" opacity="0.14"/><circle cx="513" cy="194" r="1.0" fill="#fff" opacity="0.36"/><circle cx="164" cy="1293" r="0.4" fill="#fff" opacity="0.3"/><circle cx="73" cy="796" r="0.6" fill="#fff" opacity="0.4"/><circle cx="549" cy="522" r="1.2" fill="#fff" opacity="0.36"/><circle cx="19" cy="242" r="0.9" fill="#fff" opacity="0.26"/><circle cx="281" cy="1320" r="0.6" fill="#fff" opacity="0.19"/><circle cx="169" cy="937" r="0.3" fill="#fff" opacity="0.32"/><circle cx="277" cy="1033" r="1.0" fill="#fff" opacity="0.25"/><circle cx="116" cy="1288" r="0.6" fill="#fff" opacity="0.29"/><circle cx="211" cy="321" r="0.6" fill="#fff" opacity="0.15"/><circle cx="551" cy="9" r="0.8" fill="#fff" opacity="0.25"/><circle cx="122" cy="751" r="1.1" fill="#fff" opacity="0.35"/><circle cx="322" cy="498" r="0.4" fill="#fff" opacity="0.36"/><circle cx="88" cy="183" r="1.0" fill="#fff" opacity="0.34"/><circle cx="136" cy="270" r="0.9" fill="#fff" opacity="0.38"/><circle cx="177" cy="550" r="0.8" fill="#fff" opacity="0.28"/><circle cx="224" cy="1112" r="1.0" fill="#fff" opacity="0.31"/><circle cx="327" cy="825" r="1.2" fill="#fff" opacity="0.29"/><circle cx="456" cy="1067" r="0.7" fill="#fff" opacity="0.17"/><circle cx="73" cy="700" r="0.3" fill="#fff" opacity="0.27"/><circle cx="233" cy="22" r="0.4" fill="#fff" opacity="0.29"/><circle cx="242" cy="146" r="1.1" fill="#fff" opacity="0.36"/><circle cx="80" cy="1060" r="0.5" fill="#fff" opacity="0.3"/><circle cx="227" cy="1112" r="0.4" fill="#fff" opacity="0.38"/><circle cx="492" cy="505" r="1.0" fill="#fff" opacity="0.34"/><circle cx="202" cy="201" r="0.4" fill="#fff" opacity="0.23"/><circle cx="441" cy="849" r="0.7" fill="#fff" opacity="0.32"/><circle cx="108" cy="132" r="0.7" fill="#fff" opacity="0.2"/><circle cx="119" cy="517" r="0.5" fill="#fff" opacity="0.26"/><circle cx="151" cy="872" r="0.5" fill="#fff" opacity="0.24"/><circle cx="85" cy="915" r="1.0" fill="#fff" opacity="0.36"/><circle cx="108" cy="111" r="0.9" fill="#fff" opacity="0.26"/><circle cx="23" cy="199" r="1.1" fill="#fff" opacity="0.35"/><circle cx="178" cy="840" r="0.7" fill="#fff" opacity="0.16"/><circle cx="418" cy="128" r="0.4" fill="#fff" opacity="0.1"/><circle cx="407" cy="551" r="1.1" fill="#fff" opacity="0.34"/><circle cx="300" cy="874" r="1.6" fill="#f3d68c" opacity="0.47"/><circle cx="506" cy="325" r="1.0" fill="#fff" opacity="0.32"/><circle cx="70" cy="650" r="0.9" fill="#d8dcf0" opacity="0.43"/><circle cx="551" cy="330" r="0.9" fill="#f3d68c" opacity="0.4"/><circle cx="78" cy="1226" r="0.9" fill="#d8dcf0" opacity="0.51"/><circle cx="260" cy="1193" r="1.5" fill="#d8dcf0" opacity="0.44"/><circle cx="543" cy="655" r="1.9" fill="#f3d68c" opacity="0.31"/><circle cx="252" cy="551" r="1.3" fill="#fff" opacity="0.45"/><circle cx="331" cy="156" r="0.8" fill="#d8dcf0" opacity="0.44"/><circle cx="110" cy="158" r="1.4" fill="#fff" opacity="0.4"/><circle cx="365" cy="148" r="1.9" fill="#fff" opacity="0.36"/><circle cx="317" cy="1260" r="2.0" fill="#d8dcf0" opacity="0.49"/><circle cx="314" cy="1366" r="0.9" fill="#fff" opacity="0.51"/><circle cx="117" cy="1141" r="1.0" fill="#fff" opacity="0.33"/><circle cx="359" cy="424" r="1.6" fill="#d8dcf0" opacity="0.51"/><circle cx="265" cy="112" r="0.9" fill="#fff" opacity="0.38"/><circle cx="11" cy="691" r="1.7" fill="#fff" opacity="0.44"/><circle cx="460" cy="1137" r="1.6" fill="#fff" opacity="0.42"/><circle cx="160" cy="1125" r="0.8" fill="#d8dcf0" opacity="0.36"/><circle cx="448" cy="269" r="0.9" fill="#f3d68c" opacity="0.36"/><circle cx="48" cy="740" r="1.1" fill="#fff" opacity="0.32"/><circle cx="424" cy="1279" r="1.7" fill="#fff" opacity="0.53"/><circle cx="174" cy="370" r="1.9" fill="#f3d68c" opacity="0.26"/><circle cx="348" cy="851" r="1.8" fill="#f3d68c" opacity="0.51"/><circle cx="281" cy="334" r="1.7" fill="#f3d68c" opacity="0.28"/><circle cx="501" cy="475" r="6.3" fill="#f3d68c" opacity="0.12"/><circle cx="501" cy="475" r="3.6" fill="#f3d68c" opacity="0.25"/><circle cx="501" cy="475" r="1.8" fill="#f3d68c" opacity="0.78"/><circle cx="253" cy="476" r="5.6000000000000005" fill="#f3d68c" opacity="0.12"/><circle cx="253" cy="476" r="3.2" fill="#f3d68c" opacity="0.25"/><circle cx="253" cy="476" r="1.6" fill="#f3d68c" opacity="0.6"/><circle cx="91" cy="591" r="7.0" fill="#c9a8e8" opacity="0.12"/><circle cx="91" cy="591" r="4.0" fill="#c9a8e8" opacity="0.25"/><circle cx="91" cy="591" r="2.0" fill="#c9a8e8" opacity="0.68"/><circle cx="359" cy="76" r="5.95" fill="#f3d68c" opacity="0.12"/><circle cx="359" cy="76" r="3.4" fill="#f3d68c" opacity="0.25"/><circle cx="359" cy="76" r="1.7" fill="#f3d68c" opacity="0.79"/><circle cx="291" cy="98" r="5.95" fill="#c9a8e8" opacity="0.12"/><circle cx="291" cy="98" r="3.4" fill="#c9a8e8" opacity="0.25"/><circle cx="291" cy="98" r="1.7" fill="#c9a8e8" opacity="0.66"/><circle cx="341" cy="913" r="8.049999999999999" fill="#f3d68c" opacity="0.12"/><circle cx="341" cy="913" r="4.6" fill="#f3d68c" opacity="0.25"/><circle cx="341" cy="913" r="2.3" fill="#f3d68c" opacity="0.68"/><circle cx="214" cy="541" r="5.95" fill="#c9a8e8" opacity="0.12"/><circle cx="214" cy="541" r="3.4" fill="#c9a8e8" opacity="0.25"/><circle cx="214" cy="541" r="1.7" fill="#c9a8e8" opacity="0.66"/><circle cx="221" cy="765" r="7.3500000000000005" fill="#c9a8e8" opacity="0.12"/><circle cx="221" cy="765" r="4.2" fill="#c9a8e8" opacity="0.25"/><circle cx="221" cy="765" r="2.1" fill="#c9a8e8" opacity="0.79"/></svg>
